<svg width="1399" height="899" viewBox="0 0 1399 899" fill="none" xmlns="http://www.w3.org/2000/svg">
<g clip-path="url(#clip0_122_30)">
<rect width="1399" height="899" fill="white"/>
<g clip-path="url(#clip1_122_30)">
<rect width="1440" height="1024" transform="translate(-1 -45)" fill="white"/>
<g clip-path="url(#clip2_122_30)">
<path d="M1486 -45H-434V1035H1486V-45Z" fill="#07454B"/>
<path d="M-434 -535C-375.333 -511.667 -204.667 -425.667 -82 -395C40.6667 -364.333 174 -376.333 302 -351C430 -325.667 547.333 -289.667 686 -243C824.667 -196.333 1000.67 -112.333 1134 -71C1267.33 -29.6667 1427.33 -7.66667 1486 5V1035H-434V-535Z" fill="url(#paint0_linear_122_30)"/>
<path d="M-362 -66C-303.333 -51.3293 -143.333 -12.6507 -10 22.024C123.333 56.6987 310 91.3733 438 142.048C566 192.723 640.667 275.397 758 326.072C875.333 376.747 1008.67 411.421 1142 446.096C1275.33 480.771 1488.67 519.449 1558 534.12V1204.12H-362V-66Z" fill="url(#paint1_linear_122_30)"/>
<path d="M-281 415C-233 428.007 -105 461.693 7 493.04C119 524.387 284.333 555.733 391 603.08C497.667 650.427 551 740.44 647 777.12C743 813.8 860.333 786.48 967 823.16C1073.67 859.84 1175 955.187 1287 997.2C1399 1039.21 1580.33 1062.23 1639 1075.24V1385.24H-281V415Z" fill="url(#paint2_linear_122_30)"/>
</g>
<rect x="450" y="24" width="539" height="841" rx="19" fill="white" stroke="#006283" stroke-width="2"/>
<path d="M636.352 133.024C632.597 133.024 628.971 132.597 625.472 131.744C621.973 130.891 619.093 129.781 616.832 128.416L621.696 117.408C623.829 118.645 626.197 119.648 628.8 120.416C631.445 121.141 634.005 121.504 636.48 121.504C637.931 121.504 639.061 121.419 639.872 121.248C640.725 121.035 641.344 120.757 641.728 120.416C642.112 120.032 642.304 119.584 642.304 119.072C642.304 118.261 641.856 117.621 640.96 117.152C640.064 116.683 638.869 116.299 637.376 116C635.925 115.659 634.325 115.317 632.576 114.976C630.827 114.592 629.056 114.101 627.264 113.504C625.515 112.907 623.893 112.117 622.4 111.136C620.949 110.155 619.776 108.875 618.88 107.296C617.984 105.675 617.536 103.669 617.536 101.28C617.536 98.5067 618.304 95.9893 619.84 93.728C621.419 91.424 623.744 89.5893 626.816 88.224C629.931 86.8587 633.792 86.176 638.4 86.176C641.429 86.176 644.416 86.496 647.36 87.136C650.304 87.776 652.949 88.7573 655.296 90.08L650.752 101.024C648.533 99.9147 646.379 99.0827 644.288 98.528C642.24 97.9733 640.235 97.696 638.272 97.696C636.821 97.696 635.669 97.824 634.816 98.08C633.963 98.336 633.344 98.6773 632.96 99.104C632.619 99.5307 632.448 100 632.448 100.512C632.448 101.28 632.896 101.899 633.792 102.368C634.688 102.795 635.861 103.157 637.312 103.456C638.805 103.755 640.427 104.075 642.176 104.416C643.968 104.757 645.739 105.227 647.488 105.824C649.237 106.421 650.837 107.211 652.288 108.192C653.781 109.173 654.976 110.453 655.872 112.032C656.768 113.611 657.216 115.573 657.216 117.92C657.216 120.651 656.427 123.168 654.848 125.472C653.312 127.733 651.008 129.568 647.936 130.976C644.864 132.341 641.003 133.024 636.352 133.024ZM661.711 132V87.2H676.815V132H661.711ZM707.318 133.024C703.691 133.024 700.342 132.469 697.27 131.36C694.24 130.208 691.595 128.587 689.334 126.496C687.115 124.405 685.387 121.931 684.15 119.072C682.912 116.213 682.294 113.056 682.294 109.6C682.294 106.144 682.912 102.987 684.15 100.128C685.387 97.2693 687.136 94.7947 689.398 92.704C691.659 90.6133 694.326 89.0133 697.398 87.904C700.512 86.752 703.926 86.176 707.638 86.176C712.075 86.176 716.022 86.9227 719.478 88.416C722.976 89.9093 725.856 92.0427 728.118 94.816L718.454 103.328C717.046 101.707 715.51 100.491 713.846 99.68C712.224 98.8267 710.411 98.4 708.406 98.4C706.742 98.4 705.227 98.656 703.862 99.168C702.539 99.68 701.408 100.427 700.47 101.408C699.531 102.389 698.806 103.563 698.294 104.928C697.782 106.293 697.526 107.851 697.526 109.6C697.526 111.264 697.782 112.8 698.294 114.208C698.806 115.573 699.531 116.747 700.47 117.728C701.408 118.709 702.518 119.477 703.798 120.032C705.12 120.544 706.592 120.8 708.214 120.8C709.92 120.8 711.584 120.523 713.206 119.968C714.827 119.371 716.555 118.368 718.39 116.96L726.838 127.328C724.107 129.163 720.992 130.571 717.494 131.552C713.995 132.533 710.603 133.024 707.318 133.024ZM713.718 125.408V108.384H726.838V127.328L713.718 125.408ZM728.409 132L747.993 87.2H762.841L782.425 132H766.809L752.345 94.368H758.233L743.769 132H728.409ZM740.057 124.192L743.897 113.312H764.505L768.345 124.192H740.057ZM798.916 106.272H818.628V117.664H798.916V106.272ZM799.94 132H784.836V87.2H821.252V98.592H799.94V132Z" fill="#044F69"/>
<path d="M607.52 283V266.2H609.92V280.912H619.016V283H607.52ZM626.718 283.144C625.438 283.144 624.302 282.864 623.31 282.304C622.318 281.744 621.534 280.976 620.958 280C620.382 279.008 620.094 277.888 620.094 276.64C620.094 275.376 620.382 274.256 620.958 273.28C621.534 272.304 622.318 271.544 623.31 271C624.302 270.44 625.438 270.16 626.718 270.16C627.982 270.16 629.11 270.44 630.102 271C631.11 271.544 631.894 272.304 632.454 273.28C633.03 274.24 633.318 275.36 633.318 276.64C633.318 277.904 633.03 279.024 632.454 280C631.894 280.976 631.11 281.744 630.102 282.304C629.11 282.864 627.982 283.144 626.718 283.144ZM626.718 281.128C627.534 281.128 628.262 280.944 628.902 280.576C629.558 280.208 630.07 279.688 630.438 279.016C630.806 278.328 630.99 277.536 630.99 276.64C630.99 275.728 630.806 274.944 630.438 274.288C630.07 273.616 629.558 273.096 628.902 272.728C628.262 272.36 627.534 272.176 626.718 272.176C625.902 272.176 625.174 272.36 624.534 272.728C623.894 273.096 623.382 273.616 622.998 274.288C622.614 274.944 622.422 275.728 622.422 276.64C622.422 277.536 622.614 278.328 622.998 279.016C623.382 279.688 623.894 280.208 624.534 280.576C625.174 280.944 625.902 281.128 626.718 281.128ZM642.072 287.8C640.904 287.8 639.768 287.632 638.664 287.296C637.576 286.976 636.688 286.512 636 285.904L637.104 284.128C637.696 284.64 638.424 285.04 639.288 285.328C640.152 285.632 641.056 285.784 642 285.784C643.504 285.784 644.608 285.432 645.312 284.728C646.016 284.024 646.368 282.952 646.368 281.512V278.824L646.608 276.304L646.488 273.76V270.28H648.672V281.272C648.672 283.512 648.112 285.16 646.992 286.216C645.872 287.272 644.232 287.8 642.072 287.8ZM641.784 282.472C640.552 282.472 639.448 282.216 638.472 281.704C637.512 281.176 636.744 280.448 636.168 279.52C635.608 278.592 635.328 277.52 635.328 276.304C635.328 275.072 635.608 274 636.168 273.088C636.744 272.16 637.512 271.44 638.472 270.928C639.448 270.416 640.552 270.16 641.784 270.16C642.872 270.16 643.864 270.384 644.76 270.832C645.656 271.264 646.368 271.936 646.896 272.848C647.44 273.76 647.712 274.912 647.712 276.304C647.712 277.68 647.44 278.824 646.896 279.736C646.368 280.648 645.656 281.336 644.76 281.8C643.864 282.248 642.872 282.472 641.784 282.472ZM642.048 280.456C642.896 280.456 643.648 280.28 644.304 279.928C644.96 279.576 645.472 279.088 645.84 278.464C646.224 277.84 646.416 277.12 646.416 276.304C646.416 275.488 646.224 274.768 645.84 274.144C645.472 273.52 644.96 273.04 644.304 272.704C643.648 272.352 642.896 272.176 642.048 272.176C641.2 272.176 640.44 272.352 639.768 272.704C639.112 273.04 638.592 273.52 638.208 274.144C637.84 274.768 637.656 275.488 637.656 276.304C637.656 277.12 637.84 277.84 638.208 278.464C638.592 279.088 639.112 279.576 639.768 279.928C640.44 280.28 641.2 280.456 642.048 280.456ZM653.075 283V270.28H655.379V283H653.075ZM654.227 267.832C653.779 267.832 653.403 267.688 653.099 267.4C652.811 267.112 652.667 266.76 652.667 266.344C652.667 265.912 652.811 265.552 653.099 265.264C653.403 264.976 653.779 264.832 654.227 264.832C654.675 264.832 655.043 264.976 655.331 265.264C655.635 265.536 655.787 265.88 655.787 266.296C655.787 266.728 655.643 267.096 655.355 267.4C655.067 267.688 654.691 267.832 654.227 267.832ZM666.57 270.16C667.61 270.16 668.522 270.36 669.306 270.76C670.106 271.16 670.73 271.768 671.178 272.584C671.626 273.4 671.85 274.432 671.85 275.68V283H669.546V275.944C669.546 274.712 669.242 273.784 668.634 273.16C668.042 272.536 667.202 272.224 666.114 272.224C665.298 272.224 664.586 272.384 663.978 272.704C663.37 273.024 662.898 273.496 662.562 274.12C662.242 274.744 662.082 275.52 662.082 276.448V283H659.778V270.28H661.986V273.712L661.626 272.8C662.042 271.968 662.682 271.32 663.546 270.856C664.41 270.392 665.418 270.16 666.57 270.16Z" fill="#006283"/>
<path d="M566.36 397.24C565.28 397.24 564.273 397.067 563.34 396.72C562.42 396.36 561.62 395.853 560.94 395.2C560.26 394.547 559.727 393.78 559.34 392.9C558.967 392.02 558.78 391.053 558.78 390C558.78 388.947 558.967 387.98 559.34 387.1C559.727 386.22 560.26 385.453 560.94 384.8C561.633 384.147 562.44 383.647 563.36 383.3C564.28 382.94 565.287 382.76 566.38 382.76C567.593 382.76 568.687 382.973 569.66 383.4C570.647 383.813 571.473 384.427 572.14 385.24L570.06 387.16C569.58 386.613 569.047 386.207 568.46 385.94C567.873 385.66 567.233 385.52 566.54 385.52C565.887 385.52 565.287 385.627 564.74 385.84C564.193 386.053 563.72 386.36 563.32 386.76C562.92 387.16 562.607 387.633 562.38 388.18C562.167 388.727 562.06 389.333 562.06 390C562.06 390.667 562.167 391.273 562.38 391.82C562.607 392.367 562.92 392.84 563.32 393.24C563.72 393.64 564.193 393.947 564.74 394.16C565.287 394.373 565.887 394.48 566.54 394.48C567.233 394.48 567.873 394.347 568.46 394.08C569.047 393.8 569.58 393.38 570.06 392.82L572.14 394.74C571.473 395.553 570.647 396.173 569.66 396.6C568.687 397.027 567.587 397.24 566.36 397.24ZM574.328 397V383H580.388C581.641 383 582.721 383.207 583.628 383.62C584.535 384.02 585.235 384.6 585.728 385.36C586.221 386.12 586.468 387.027 586.468 388.08C586.468 389.12 586.221 390.02 585.728 390.78C585.235 391.54 584.535 392.127 583.628 392.54C582.721 392.94 581.641 393.14 580.388 393.14H576.128L577.568 391.68V397H574.328ZM577.568 392.04L576.128 390.5H580.208C581.208 390.5 581.955 390.287 582.448 389.86C582.941 389.433 583.188 388.84 583.188 388.08C583.188 387.307 582.941 386.707 582.448 386.28C581.955 385.853 581.208 385.64 580.208 385.64H576.128L577.568 384.1V392.04ZM591.781 389.3H598.501V391.9H591.781V389.3ZM592.021 397H588.781V383H599.361V385.6H592.021V397Z" fill="#006283"/>
<path d="M762.032 283.192C760.752 283.192 759.568 282.984 758.48 282.568C757.408 282.136 756.472 281.536 755.672 280.768C754.888 279.984 754.272 279.072 753.824 278.032C753.376 276.992 753.152 275.848 753.152 274.6C753.152 273.352 753.376 272.208 753.824 271.168C754.272 270.128 754.896 269.224 755.696 268.456C756.496 267.672 757.432 267.072 758.504 266.656C759.592 266.224 760.776 266.008 762.056 266.008C763.352 266.008 764.544 266.232 765.632 266.68C766.736 267.112 767.672 267.76 768.44 268.624L766.88 270.136C766.24 269.464 765.52 268.968 764.72 268.648C763.92 268.312 763.064 268.144 762.152 268.144C761.208 268.144 760.328 268.304 759.512 268.624C758.712 268.944 758.016 269.392 757.424 269.968C756.832 270.544 756.368 271.232 756.032 272.032C755.712 272.816 755.552 273.672 755.552 274.6C755.552 275.528 755.712 276.392 756.032 277.192C756.368 277.976 756.832 278.656 757.424 279.232C758.016 279.808 758.712 280.256 759.512 280.576C760.328 280.896 761.208 281.056 762.152 281.056C763.064 281.056 763.92 280.896 764.72 280.576C765.52 280.24 766.24 279.728 766.88 279.04L768.44 280.552C767.672 281.416 766.736 282.072 765.632 282.52C764.544 282.968 763.344 283.192 762.032 283.192ZM779.26 283V280.312L779.14 279.808V275.224C779.14 274.248 778.852 273.496 778.276 272.968C777.716 272.424 776.868 272.152 775.732 272.152C774.98 272.152 774.244 272.28 773.524 272.536C772.804 272.776 772.196 273.104 771.7 273.52L770.74 271.792C771.396 271.264 772.18 270.864 773.092 270.592C774.02 270.304 774.988 270.16 775.996 270.16C777.74 270.16 779.084 270.584 780.028 271.432C780.972 272.28 781.444 273.576 781.444 275.32V283H779.26ZM775.084 283.144C774.14 283.144 773.308 282.984 772.588 282.664C771.884 282.344 771.34 281.904 770.956 281.344C770.572 280.768 770.38 280.12 770.38 279.4C770.38 278.712 770.54 278.088 770.86 277.528C771.196 276.968 771.732 276.52 772.468 276.184C773.22 275.848 774.228 275.68 775.492 275.68H779.524V277.336H775.588C774.436 277.336 773.66 277.528 773.26 277.912C772.86 278.296 772.66 278.76 772.66 279.304C772.66 279.928 772.908 280.432 773.404 280.816C773.9 281.184 774.588 281.368 775.468 281.368C776.332 281.368 777.084 281.176 777.724 280.792C778.38 280.408 778.852 279.848 779.14 279.112L779.596 280.696C779.292 281.448 778.756 282.048 777.988 282.496C777.22 282.928 776.252 283.144 775.084 283.144ZM790.963 283.144C789.731 283.144 788.627 282.872 787.651 282.328C786.691 281.784 785.931 281.024 785.371 280.048C784.811 279.072 784.531 277.936 784.531 276.64C784.531 275.344 784.811 274.216 785.371 273.256C785.931 272.28 786.691 271.52 787.651 270.976C788.627 270.432 789.731 270.16 790.963 270.16C792.035 270.16 793.003 270.4 793.867 270.88C794.731 271.36 795.419 272.08 795.931 273.04C796.459 274 796.723 275.2 796.723 276.64C796.723 278.08 796.467 279.28 795.955 280.24C795.459 281.2 794.779 281.928 793.915 282.424C793.051 282.904 792.067 283.144 790.963 283.144ZM791.155 281.128C791.955 281.128 792.675 280.944 793.315 280.576C793.971 280.208 794.483 279.688 794.851 279.016C795.235 278.328 795.427 277.536 795.427 276.64C795.427 275.728 795.235 274.944 794.851 274.288C794.483 273.616 793.971 273.096 793.315 272.728C792.675 272.36 791.955 272.176 791.155 272.176C790.339 272.176 789.611 272.36 788.971 272.728C788.331 273.096 787.819 273.616 787.435 274.288C787.051 274.944 786.859 275.728 786.859 276.64C786.859 277.536 787.051 278.328 787.435 279.016C787.819 279.688 788.331 280.208 788.971 280.576C789.611 280.944 790.339 281.128 791.155 281.128ZM795.499 283V279.568L795.643 276.616L795.403 273.664V265.192H797.707V283H795.499ZM809.963 283V280.312L809.843 279.808V275.224C809.843 274.248 809.555 273.496 808.979 272.968C808.419 272.424 807.571 272.152 806.435 272.152C805.683 272.152 804.947 272.28 804.227 272.536C803.507 272.776 802.899 273.104 802.403 273.52L801.443 271.792C802.099 271.264 802.883 270.864 803.795 270.592C804.723 270.304 805.691 270.16 806.699 270.16C808.443 270.16 809.787 270.584 810.731 271.432C811.675 272.28 812.147 273.576 812.147 275.32V283H809.963ZM805.787 283.144C804.843 283.144 804.011 282.984 803.291 282.664C802.587 282.344 802.043 281.904 801.659 281.344C801.275 280.768 801.083 280.12 801.083 279.4C801.083 278.712 801.243 278.088 801.563 277.528C801.899 276.968 802.435 276.52 803.171 276.184C803.923 275.848 804.931 275.68 806.195 275.68H810.227V277.336H806.291C805.139 277.336 804.363 277.528 803.963 277.912C803.563 278.296 803.363 278.76 803.363 279.304C803.363 279.928 803.611 280.432 804.107 280.816C804.603 281.184 805.291 281.368 806.171 281.368C807.035 281.368 807.787 281.176 808.427 280.792C809.083 280.408 809.555 279.848 809.843 279.112L810.299 280.696C809.995 281.448 809.459 282.048 808.691 282.496C807.923 282.928 806.955 283.144 805.787 283.144ZM820.059 283.144C819.003 283.144 817.995 283 817.035 282.712C816.091 282.424 815.347 282.072 814.803 281.656L815.763 279.832C816.307 280.2 816.979 280.512 817.779 280.768C818.579 281.024 819.395 281.152 820.227 281.152C821.299 281.152 822.067 281 822.531 280.696C823.011 280.392 823.251 279.968 823.251 279.424C823.251 279.024 823.107 278.712 822.819 278.488C822.531 278.264 822.147 278.096 821.667 277.984C821.203 277.872 820.683 277.776 820.107 277.696C819.531 277.6 818.955 277.488 818.379 277.36C817.803 277.216 817.275 277.024 816.795 276.784C816.315 276.528 815.931 276.184 815.643 275.752C815.355 275.304 815.211 274.712 815.211 273.976C815.211 273.208 815.427 272.536 815.859 271.96C816.291 271.384 816.899 270.944 817.683 270.64C818.483 270.32 819.427 270.16 820.515 270.16C821.347 270.16 822.187 270.264 823.035 270.472C823.899 270.664 824.603 270.944 825.147 271.312L824.163 273.136C823.587 272.752 822.987 272.488 822.363 272.344C821.739 272.2 821.115 272.128 820.491 272.128C819.483 272.128 818.731 272.296 818.235 272.632C817.739 272.952 817.491 273.368 817.491 273.88C817.491 274.312 817.635 274.648 817.923 274.888C818.227 275.112 818.611 275.288 819.075 275.416C819.555 275.544 820.083 275.656 820.659 275.752C821.235 275.832 821.811 275.944 822.387 276.088C822.963 276.216 823.483 276.4 823.947 276.64C824.427 276.88 824.811 277.216 825.099 277.648C825.403 278.08 825.555 278.656 825.555 279.376C825.555 280.144 825.331 280.808 824.883 281.368C824.435 281.928 823.803 282.368 822.987 282.688C822.171 282.992 821.195 283.144 820.059 283.144ZM832.802 283.144C831.522 283.144 830.53 282.8 829.826 282.112C829.122 281.424 828.77 280.44 828.77 279.16V267.496H831.074V279.064C831.074 279.752 831.242 280.28 831.578 280.648C831.93 281.016 832.426 281.2 833.066 281.2C833.786 281.2 834.386 281 834.866 280.6L835.586 282.256C835.234 282.56 834.81 282.784 834.314 282.928C833.834 283.072 833.33 283.144 832.802 283.144ZM826.61 272.176V270.28H834.722V272.176H826.61ZM838.372 283V270.28H840.58V273.736L840.364 272.872C840.716 271.992 841.308 271.32 842.14 270.856C842.972 270.392 843.996 270.16 845.212 270.16V272.392C845.116 272.376 845.02 272.368 844.924 272.368C844.844 272.368 844.764 272.368 844.684 272.368C843.452 272.368 842.476 272.736 841.756 273.472C841.036 274.208 840.676 275.272 840.676 276.664V283H838.372ZM853.382 283.144C852.102 283.144 850.966 282.864 849.974 282.304C848.982 281.744 848.198 280.976 847.622 280C847.046 279.008 846.758 277.888 846.758 276.64C846.758 275.376 847.046 274.256 847.622 273.28C848.198 272.304 848.982 271.544 849.974 271C850.966 270.44 852.102 270.16 853.382 270.16C854.646 270.16 855.774 270.44 856.766 271C857.774 271.544 858.558 272.304 859.118 273.28C859.694 274.24 859.982 275.36 859.982 276.64C859.982 277.904 859.694 279.024 859.118 280C858.558 280.976 857.774 281.744 856.766 282.304C855.774 282.864 854.646 283.144 853.382 283.144ZM853.382 281.128C854.198 281.128 854.926 280.944 855.566 280.576C856.222 280.208 856.734 279.688 857.102 279.016C857.47 278.328 857.654 277.536 857.654 276.64C857.654 275.728 857.47 274.944 857.102 274.288C856.734 273.616 856.222 273.096 855.566 272.728C854.926 272.36 854.198 272.176 853.382 272.176C852.566 272.176 851.838 272.36 851.198 272.728C850.558 273.096 850.046 273.616 849.662 274.288C849.278 274.944 849.086 275.728 849.086 276.64C849.086 277.536 849.278 278.328 849.662 279.016C850.046 279.688 850.558 280.208 851.198 280.576C851.838 280.944 852.566 281.128 853.382 281.128Z" fill="black"/>
<rect x="590" y="297" width="100" height="2" fill="#044F69"/>
<rect x="558.5" y="402.5" width="339" height="39" rx="4.5" fill="white" stroke="#044F69"/>
<path d="M570.052 429V416.4H571.384V429H570.052ZM580.038 419.46C580.806 419.46 581.478 419.61 582.054 419.91C582.642 420.198 583.098 420.642 583.422 421.242C583.758 421.842 583.926 422.598 583.926 423.51V429H582.648V423.636C582.648 422.64 582.396 421.89 581.892 421.386C581.4 420.87 580.704 420.612 579.804 420.612C579.132 420.612 578.544 420.75 578.04 421.026C577.548 421.29 577.164 421.68 576.888 422.196C576.624 422.7 576.492 423.312 576.492 424.032V429H575.214V419.55H576.438V422.142L576.24 421.656C576.54 420.972 577.02 420.438 577.68 420.054C578.34 419.658 579.126 419.46 580.038 419.46ZM589.916 429.09C589.136 429.09 588.398 428.982 587.702 428.766C587.006 428.538 586.46 428.256 586.064 427.92L586.64 426.912C587.024 427.2 587.516 427.452 588.116 427.668C588.716 427.872 589.346 427.974 590.006 427.974C590.906 427.974 591.554 427.836 591.95 427.56C592.346 427.272 592.544 426.894 592.544 426.426C592.544 426.078 592.43 425.808 592.202 425.616C591.986 425.412 591.698 425.262 591.338 425.166C590.978 425.058 590.576 424.968 590.132 424.896C589.688 424.824 589.244 424.74 588.8 424.644C588.368 424.548 587.972 424.41 587.612 424.23C587.252 424.038 586.958 423.78 586.73 423.456C586.514 423.132 586.406 422.7 586.406 422.16C586.406 421.644 586.55 421.182 586.838 420.774C587.126 420.366 587.546 420.048 588.098 419.82C588.662 419.58 589.346 419.46 590.15 419.46C590.762 419.46 591.374 419.544 591.986 419.712C592.598 419.868 593.102 420.078 593.498 420.342L592.94 421.368C592.52 421.08 592.07 420.876 591.59 420.756C591.11 420.624 590.63 420.558 590.15 420.558C589.298 420.558 588.668 420.708 588.26 421.008C587.864 421.296 587.666 421.668 587.666 422.124C587.666 422.484 587.774 422.766 587.99 422.97C588.218 423.174 588.512 423.336 588.872 423.456C589.244 423.564 589.646 423.654 590.078 423.726C590.522 423.798 590.96 423.888 591.392 423.996C591.836 424.092 592.238 424.23 592.598 424.41C592.97 424.578 593.264 424.824 593.48 425.148C593.708 425.46 593.822 425.874 593.822 426.39C593.822 426.942 593.666 427.422 593.354 427.83C593.054 428.226 592.61 428.538 592.022 428.766C591.446 428.982 590.744 429.09 589.916 429.09ZM596.167 429V419.55H597.445V429H596.167ZM596.815 417.462C596.551 417.462 596.329 417.372 596.149 417.192C595.969 417.012 595.879 416.796 595.879 416.544C595.879 416.292 595.969 416.082 596.149 415.914C596.329 415.734 596.551 415.644 596.815 415.644C597.079 415.644 597.301 415.728 597.481 415.896C597.661 416.064 597.751 416.274 597.751 416.526C597.751 416.79 597.661 417.012 597.481 417.192C597.313 417.372 597.091 417.462 596.815 417.462ZM601.001 429V419.55H602.225V422.124L602.099 421.674C602.363 420.954 602.807 420.408 603.431 420.036C604.055 419.652 604.829 419.46 605.753 419.46V420.702C605.705 420.702 605.657 420.702 605.609 420.702C605.561 420.69 605.513 420.684 605.465 420.684C604.469 420.684 603.689 420.99 603.125 421.602C602.561 422.202 602.279 423.06 602.279 424.176V429H601.001ZM613.304 429V426.912L613.25 426.57V423.078C613.25 422.274 613.022 421.656 612.566 421.224C612.122 420.792 611.456 420.576 610.568 420.576C609.956 420.576 609.374 420.678 608.822 420.882C608.27 421.086 607.802 421.356 607.418 421.692L606.842 420.738C607.322 420.33 607.898 420.018 608.57 419.802C609.242 419.574 609.95 419.46 610.694 419.46C611.918 419.46 612.86 419.766 613.52 420.378C614.192 420.978 614.528 421.896 614.528 423.132V429H613.304ZM610.046 429.09C609.338 429.09 608.72 428.976 608.192 428.748C607.676 428.508 607.28 428.184 607.004 427.776C606.728 427.356 606.59 426.876 606.59 426.336C606.59 425.844 606.704 425.4 606.932 425.004C607.172 424.596 607.556 424.272 608.084 424.032C608.624 423.78 609.344 423.654 610.244 423.654H613.502V424.608H610.28C609.368 424.608 608.732 424.77 608.372 425.094C608.024 425.418 607.85 425.82 607.85 426.3C607.85 426.84 608.06 427.272 608.48 427.596C608.9 427.92 609.488 428.082 610.244 428.082C610.964 428.082 611.582 427.92 612.098 427.596C612.626 427.26 613.01 426.78 613.25 426.156L613.538 427.038C613.298 427.662 612.878 428.16 612.278 428.532C611.69 428.904 610.946 429.09 610.046 429.09ZM628.632 429V426.912L628.578 426.57V423.078C628.578 422.274 628.35 421.656 627.894 421.224C627.45 420.792 626.784 420.576 625.896 420.576C625.284 420.576 624.702 420.678 624.15 420.882C623.598 421.086 623.13 421.356 622.746 421.692L622.17 420.738C622.65 420.33 623.226 420.018 623.898 419.802C624.57 419.574 625.278 419.46 626.022 419.46C627.246 419.46 628.188 419.766 628.848 420.378C629.52 420.978 629.856 421.896 629.856 423.132V429H628.632ZM625.374 429.09C624.666 429.09 624.048 428.976 623.52 428.748C623.004 428.508 622.608 428.184 622.332 427.776C622.056 427.356 621.918 426.876 621.918 426.336C621.918 425.844 622.032 425.4 622.26 425.004C622.5 424.596 622.884 424.272 623.412 424.032C623.952 423.78 624.672 423.654 625.572 423.654H628.83V424.608H625.608C624.696 424.608 624.06 424.77 623.7 425.094C623.352 425.418 623.178 425.82 623.178 426.3C623.178 426.84 623.388 427.272 623.808 427.596C624.228 427.92 624.816 428.082 625.572 428.082C626.292 428.082 626.91 427.92 627.426 427.596C627.954 427.26 628.338 426.78 628.578 426.156L628.866 427.038C628.626 427.662 628.206 428.16 627.606 428.532C627.018 428.904 626.274 429.09 625.374 429.09ZM637.089 429.09C636.189 429.09 635.379 428.886 634.659 428.478C633.951 428.07 633.393 427.506 632.985 426.786C632.577 426.066 632.373 425.226 632.373 424.266C632.373 423.318 632.577 422.484 632.985 421.764C633.393 421.032 633.951 420.468 634.659 420.072C635.379 419.664 636.189 419.46 637.089 419.46C637.929 419.46 638.673 419.646 639.321 420.018C639.981 420.39 640.503 420.936 640.887 421.656C641.271 422.364 641.463 423.234 641.463 424.266C641.463 425.298 641.265 426.174 640.869 426.894C640.485 427.602 639.963 428.148 639.303 428.532C638.655 428.904 637.917 429.09 637.089 429.09ZM637.179 427.956C637.851 427.956 638.451 427.806 638.979 427.506C639.519 427.194 639.939 426.762 640.239 426.21C640.551 425.646 640.707 424.998 640.707 424.266C640.707 423.534 640.551 422.892 640.239 422.34C639.939 421.788 639.519 421.356 638.979 421.044C638.451 420.732 637.851 420.576 637.179 420.576C636.519 420.576 635.925 420.732 635.397 421.044C634.869 421.356 634.449 421.788 634.137 422.34C633.825 422.892 633.669 423.534 633.669 424.266C633.669 424.998 633.825 425.646 634.137 426.21C634.449 426.762 634.869 427.194 635.397 427.506C635.925 427.806 636.519 427.956 637.179 427.956ZM640.689 432.492V426.192L640.869 424.284L640.743 422.394V419.55H641.967V432.492H640.689ZM649.432 429.09C648.628 429.09 647.926 428.94 647.326 428.64C646.726 428.34 646.258 427.89 645.922 427.29C645.598 426.69 645.436 425.94 645.436 425.04V419.55H646.714V424.896C646.714 425.904 646.96 426.666 647.452 427.182C647.956 427.686 648.658 427.938 649.558 427.938C650.218 427.938 650.788 427.806 651.268 427.542C651.76 427.266 652.132 426.87 652.384 426.354C652.648 425.838 652.78 425.22 652.78 424.5V419.55H654.058V429H652.834V426.408L653.032 426.876C652.732 427.572 652.264 428.118 651.628 428.514C651.004 428.898 650.272 429.09 649.432 429.09ZM657.62 429V419.55H658.898V429H657.62ZM658.268 417.462C658.004 417.462 657.782 417.372 657.602 417.192C657.422 417.012 657.332 416.796 657.332 416.544C657.332 416.292 657.422 416.082 657.602 415.914C657.782 415.734 658.004 415.644 658.268 415.644C658.532 415.644 658.754 415.728 658.934 415.896C659.114 416.064 659.204 416.274 659.204 416.526C659.204 416.79 659.114 417.012 658.934 417.192C658.766 417.372 658.544 417.462 658.268 417.462ZM671.017 429.09C670.105 429.09 669.283 428.886 668.551 428.478C667.831 428.058 667.261 427.488 666.841 426.768C666.421 426.036 666.211 425.202 666.211 424.266C666.211 423.318 666.421 422.484 666.841 421.764C667.261 421.044 667.831 420.48 668.551 420.072C669.271 419.664 670.093 419.46 671.017 419.46C671.953 419.46 672.781 419.664 673.501 420.072C674.233 420.48 674.803 421.044 675.211 421.764C675.631 422.484 675.841 423.318 675.841 424.266C675.841 425.202 675.631 426.036 675.211 426.768C674.803 427.488 674.233 428.058 673.501 428.478C672.769 428.886 671.941 429.09 671.017 429.09ZM671.017 427.956C671.701 427.956 672.307 427.806 672.835 427.506C673.363 427.194 673.777 426.762 674.077 426.21C674.389 425.646 674.545 424.998 674.545 424.266C674.545 423.522 674.389 422.874 674.077 422.322C673.777 421.77 673.363 421.344 672.835 421.044C672.307 420.732 671.707 420.576 671.035 420.576C670.363 420.576 669.763 420.732 669.235 421.044C668.707 421.344 668.287 421.77 667.975 422.322C667.663 422.874 667.507 423.522 667.507 424.266C667.507 424.998 667.663 425.646 667.975 426.21C668.287 426.762 668.707 427.194 669.235 427.506C669.763 427.806 670.357 427.956 671.017 427.956ZM685.699 429.09C684.919 429.09 684.181 428.982 683.485 428.766C682.789 428.538 682.243 428.256 681.847 427.92L682.423 426.912C682.807 427.2 683.299 427.452 683.899 427.668C684.499 427.872 685.129 427.974 685.789 427.974C686.689 427.974 687.337 427.836 687.733 427.56C688.129 427.272 688.327 426.894 688.327 426.426C688.327 426.078 688.213 425.808 687.985 425.616C687.769 425.412 687.481 425.262 687.121 425.166C686.761 425.058 686.359 424.968 685.915 424.896C685.471 424.824 685.027 424.74 684.583 424.644C684.151 424.548 683.755 424.41 683.395 424.23C683.035 424.038 682.741 423.78 682.513 423.456C682.297 423.132 682.189 422.7 682.189 422.16C682.189 421.644 682.333 421.182 682.621 420.774C682.909 420.366 683.329 420.048 683.881 419.82C684.445 419.58 685.129 419.46 685.933 419.46C686.545 419.46 687.157 419.544 687.769 419.712C688.381 419.868 688.885 420.078 689.281 420.342L688.723 421.368C688.303 421.08 687.853 420.876 687.373 420.756C686.893 420.624 686.413 420.558 685.933 420.558C685.081 420.558 684.451 420.708 684.043 421.008C683.647 421.296 683.449 421.668 683.449 422.124C683.449 422.484 683.557 422.766 683.773 422.97C684.001 423.174 684.295 423.336 684.655 423.456C685.027 423.564 685.429 423.654 685.861 423.726C686.305 423.798 686.743 423.888 687.175 423.996C687.619 424.092 688.021 424.23 688.381 424.41C688.753 424.578 689.047 424.824 689.263 425.148C689.491 425.46 689.605 425.874 689.605 426.39C689.605 426.942 689.449 427.422 689.137 427.83C688.837 428.226 688.393 428.538 687.805 428.766C687.229 428.982 686.527 429.09 685.699 429.09ZM695.964 429.09C694.98 429.09 694.116 428.886 693.372 428.478C692.628 428.058 692.046 427.488 691.626 426.768C691.206 426.036 690.996 425.202 690.996 424.266C690.996 423.33 691.194 422.502 691.59 421.782C691.998 421.062 692.55 420.498 693.246 420.09C693.954 419.67 694.746 419.46 695.622 419.46C696.51 419.46 697.296 419.664 697.98 420.072C698.676 420.468 699.222 421.032 699.618 421.764C700.014 422.484 700.212 423.318 700.212 424.266C700.212 424.326 700.206 424.392 700.194 424.464C700.194 424.524 700.194 424.59 700.194 424.662H691.968V423.708H699.51L699.006 424.086C699.006 423.402 698.856 422.796 698.556 422.268C698.268 421.728 697.872 421.308 697.368 421.008C696.864 420.708 696.282 420.558 695.622 420.558C694.974 420.558 694.392 420.708 693.876 421.008C693.36 421.308 692.958 421.728 692.67 422.268C692.382 422.808 692.238 423.426 692.238 424.122V424.32C692.238 425.04 692.394 425.676 692.706 426.228C693.03 426.768 693.474 427.194 694.038 427.506C694.614 427.806 695.268 427.956 696 427.956C696.576 427.956 697.11 427.854 697.602 427.65C698.106 427.446 698.538 427.134 698.898 426.714L699.618 427.542C699.198 428.046 698.67 428.43 698.034 428.694C697.41 428.958 696.72 429.09 695.964 429.09ZM706.719 429.09C705.915 429.09 705.213 428.94 704.613 428.64C704.013 428.34 703.545 427.89 703.209 427.29C702.885 426.69 702.723 425.94 702.723 425.04V419.55H704.001V424.896C704.001 425.904 704.247 426.666 704.739 427.182C705.243 427.686 705.945 427.938 706.845 427.938C707.505 427.938 708.075 427.806 708.555 427.542C709.047 427.266 709.419 426.87 709.671 426.354C709.935 425.838 710.067 425.22 710.067 424.5V419.55H711.345V429H710.121V426.408L710.319 426.876C710.019 427.572 709.551 428.118 708.915 428.514C708.291 428.898 707.559 429.09 706.719 429.09ZM723.542 429.09C722.606 429.09 721.766 428.886 721.022 428.478C720.29 428.058 719.714 427.488 719.294 426.768C718.874 426.036 718.664 425.202 718.664 424.266C718.664 423.318 718.874 422.484 719.294 421.764C719.714 421.044 720.29 420.48 721.022 420.072C721.766 419.664 722.606 419.46 723.542 419.46C724.346 419.46 725.072 419.616 725.72 419.928C726.368 420.24 726.878 420.708 727.25 421.332L726.296 421.98C725.972 421.5 725.57 421.146 725.09 420.918C724.61 420.69 724.088 420.576 723.524 420.576C722.852 420.576 722.246 420.732 721.706 421.044C721.166 421.344 720.74 421.77 720.428 422.322C720.116 422.874 719.96 423.522 719.96 424.266C719.96 425.01 720.116 425.658 720.428 426.21C720.74 426.762 721.166 427.194 721.706 427.506C722.246 427.806 722.852 427.956 723.524 427.956C724.088 427.956 724.61 427.842 725.09 427.614C725.57 427.386 725.972 427.038 726.296 426.57L727.25 427.218C726.878 427.83 726.368 428.298 725.72 428.622C725.072 428.934 724.346 429.09 723.542 429.09ZM734.639 429.09C733.823 429.09 733.085 428.904 732.425 428.532C731.765 428.148 731.237 427.602 730.841 426.894C730.457 426.174 730.265 425.298 730.265 424.266C730.265 423.234 730.457 422.364 730.841 421.656C731.225 420.936 731.747 420.39 732.407 420.018C733.067 419.646 733.811 419.46 734.639 419.46C735.539 419.46 736.343 419.664 737.051 420.072C737.771 420.468 738.335 421.032 738.743 421.764C739.151 422.484 739.355 423.318 739.355 424.266C739.355 425.226 739.151 426.066 738.743 426.786C738.335 427.506 737.771 428.07 737.051 428.478C736.343 428.886 735.539 429.09 734.639 429.09ZM729.761 432.492V419.55H730.985V422.394L730.859 424.284L731.039 426.192V432.492H729.761ZM734.549 427.956C735.221 427.956 735.821 427.806 736.349 427.506C736.877 427.194 737.297 426.762 737.609 426.21C737.921 425.646 738.077 424.998 738.077 424.266C738.077 423.534 737.921 422.892 737.609 422.34C737.297 421.788 736.877 421.356 736.349 421.044C735.821 420.732 735.221 420.576 734.549 420.576C733.877 420.576 733.271 420.732 732.731 421.044C732.203 421.356 731.783 421.788 731.471 422.34C731.171 422.892 731.021 423.534 731.021 424.266C731.021 424.998 731.171 425.646 731.471 426.21C731.783 426.762 732.203 427.194 732.731 427.506C733.271 427.806 733.877 427.956 734.549 427.956ZM742.176 429V418.362C742.176 417.522 742.422 416.844 742.914 416.328C743.406 415.812 744.114 415.554 745.038 415.554C745.398 415.554 745.746 415.602 746.082 415.698C746.418 415.794 746.7 415.944 746.928 416.148L746.496 417.102C746.316 416.946 746.106 416.832 745.866 416.76C745.626 416.676 745.368 416.634 745.092 416.634C744.552 416.634 744.138 416.784 743.85 417.084C743.562 417.384 743.418 417.828 743.418 418.416V419.856L743.454 420.45V429H742.176ZM740.484 420.612V419.55H746.334V420.612H740.484Z" fill="#006283"/>
<path d="M564.26 479.24C563.14 479.24 562.067 479.093 561.04 478.8C560.013 478.493 559.187 478.1 558.56 477.62L559.66 475.18C560.26 475.607 560.967 475.96 561.78 476.24C562.607 476.507 563.44 476.64 564.28 476.64C564.92 476.64 565.433 476.58 565.82 476.46C566.22 476.327 566.513 476.147 566.7 475.92C566.887 475.693 566.98 475.433 566.98 475.14C566.98 474.767 566.833 474.473 566.54 474.26C566.247 474.033 565.86 473.853 565.38 473.72C564.9 473.573 564.367 473.44 563.78 473.32C563.207 473.187 562.627 473.027 562.04 472.84C561.467 472.653 560.94 472.413 560.46 472.12C559.98 471.827 559.587 471.44 559.28 470.96C558.987 470.48 558.84 469.867 558.84 469.12C558.84 468.32 559.053 467.593 559.48 466.94C559.92 466.273 560.573 465.747 561.44 465.36C562.32 464.96 563.42 464.76 564.74 464.76C565.62 464.76 566.487 464.867 567.34 465.08C568.193 465.28 568.947 465.587 569.6 466L568.6 468.46C567.947 468.087 567.293 467.813 566.64 467.64C565.987 467.453 565.347 467.36 564.72 467.36C564.093 467.36 563.58 467.433 563.18 467.58C562.78 467.727 562.493 467.92 562.32 468.16C562.147 468.387 562.06 468.653 562.06 468.96C562.06 469.32 562.207 469.613 562.5 469.84C562.793 470.053 563.18 470.227 563.66 470.36C564.14 470.493 564.667 470.627 565.24 470.76C565.827 470.893 566.407 471.047 566.98 471.22C567.567 471.393 568.1 471.627 568.58 471.92C569.06 472.213 569.447 472.6 569.74 473.08C570.047 473.56 570.2 474.167 570.2 474.9C570.2 475.687 569.98 476.407 569.54 477.06C569.1 477.713 568.44 478.24 567.56 478.64C566.693 479.04 565.593 479.24 564.26 479.24ZM577.534 479.16C576.307 479.16 575.227 478.92 574.294 478.44C573.374 477.96 572.661 477.307 572.154 476.48C571.647 475.64 571.394 474.687 571.394 473.62C571.394 472.54 571.641 471.587 572.134 470.76C572.641 469.92 573.327 469.267 574.194 468.8C575.061 468.32 576.041 468.08 577.134 468.08C578.187 468.08 579.134 468.307 579.974 468.76C580.827 469.2 581.501 469.84 581.994 470.68C582.487 471.507 582.734 472.5 582.734 473.66C582.734 473.78 582.727 473.92 582.714 474.08C582.701 474.227 582.687 474.367 582.674 474.5H573.934V472.68H581.034L579.834 473.22C579.834 472.66 579.721 472.173 579.494 471.76C579.267 471.347 578.954 471.027 578.554 470.8C578.154 470.56 577.687 470.44 577.154 470.44C576.621 470.44 576.147 470.56 575.734 470.8C575.334 471.027 575.021 471.353 574.794 471.78C574.567 472.193 574.454 472.687 574.454 473.26V473.74C574.454 474.327 574.581 474.847 574.834 475.3C575.101 475.74 575.467 476.08 575.934 476.32C576.414 476.547 576.974 476.66 577.614 476.66C578.187 476.66 578.687 476.573 579.114 476.4C579.554 476.227 579.954 475.967 580.314 475.62L581.974 477.42C581.481 477.98 580.861 478.413 580.114 478.72C579.367 479.013 578.507 479.16 577.534 479.16ZM591.351 468.08C592.204 468.08 592.964 468.253 593.631 468.6C594.311 468.933 594.844 469.453 595.231 470.16C595.618 470.853 595.811 471.747 595.811 472.84V479H592.691V473.32C592.691 472.453 592.498 471.813 592.111 471.4C591.738 470.987 591.204 470.78 590.511 470.78C590.018 470.78 589.571 470.887 589.171 471.1C588.784 471.3 588.478 471.613 588.251 472.04C588.038 472.467 587.931 473.013 587.931 473.68V479H584.811V468.24H587.791V471.22L587.231 470.32C587.618 469.6 588.171 469.047 588.891 468.66C589.611 468.273 590.431 468.08 591.351 468.08ZM605.179 468.08C606.033 468.08 606.793 468.253 607.459 468.6C608.139 468.933 608.673 469.453 609.059 470.16C609.446 470.853 609.639 471.747 609.639 472.84V479H606.519V473.32C606.519 472.453 606.326 471.813 605.939 471.4C605.566 470.987 605.033 470.78 604.339 470.78C603.846 470.78 603.399 470.887 602.999 471.1C602.613 471.3 602.306 471.613 602.079 472.04C601.866 472.467 601.759 473.013 601.759 473.68V479H598.639V464.16H601.759V471.22L601.059 470.32C601.446 469.6 601.999 469.047 602.719 468.66C603.439 468.273 604.259 468.08 605.179 468.08ZM619.067 479V476.9L618.867 476.44V472.68C618.867 472.013 618.661 471.493 618.247 471.12C617.847 470.747 617.227 470.56 616.387 470.56C615.814 470.56 615.247 470.653 614.687 470.84C614.141 471.013 613.674 471.253 613.287 471.56L612.167 469.38C612.754 468.967 613.461 468.647 614.287 468.42C615.114 468.193 615.954 468.08 616.807 468.08C618.447 468.08 619.721 468.467 620.627 469.24C621.534 470.013 621.987 471.22 621.987 472.86V479H619.067ZM615.787 479.16C614.947 479.16 614.227 479.02 613.627 478.74C613.027 478.447 612.567 478.053 612.247 477.56C611.927 477.067 611.767 476.513 611.767 475.9C611.767 475.26 611.921 474.7 612.227 474.22C612.547 473.74 613.047 473.367 613.727 473.1C614.407 472.82 615.294 472.68 616.387 472.68H619.247V474.5H616.727C615.994 474.5 615.487 474.62 615.207 474.86C614.941 475.1 614.807 475.4 614.807 475.76C614.807 476.16 614.961 476.48 615.267 476.72C615.587 476.947 616.021 477.06 616.567 477.06C617.087 477.06 617.554 476.94 617.967 476.7C618.381 476.447 618.681 476.08 618.867 475.6L619.347 477.04C619.121 477.733 618.707 478.26 618.107 478.62C617.507 478.98 616.734 479.16 615.787 479.16Z" fill="#006283"/>
<rect x="558.5" y="484.5" width="339" height="39" rx="4.5" fill="white" stroke="#044F69"/>
<path d="M570.052 511V498.4H571.384V511H570.052ZM580.038 501.46C580.806 501.46 581.478 501.61 582.054 501.91C582.642 502.198 583.098 502.642 583.422 503.242C583.758 503.842 583.926 504.598 583.926 505.51V511H582.648V505.636C582.648 504.64 582.396 503.89 581.892 503.386C581.4 502.87 580.704 502.612 579.804 502.612C579.132 502.612 578.544 502.75 578.04 503.026C577.548 503.29 577.164 503.68 576.888 504.196C576.624 504.7 576.492 505.312 576.492 506.032V511H575.214V501.55H576.438V504.142L576.24 503.656C576.54 502.972 577.02 502.438 577.68 502.054C578.34 501.658 579.126 501.46 580.038 501.46ZM589.916 511.09C589.136 511.09 588.398 510.982 587.702 510.766C587.006 510.538 586.46 510.256 586.064 509.92L586.64 508.912C587.024 509.2 587.516 509.452 588.116 509.668C588.716 509.872 589.346 509.974 590.006 509.974C590.906 509.974 591.554 509.836 591.95 509.56C592.346 509.272 592.544 508.894 592.544 508.426C592.544 508.078 592.43 507.808 592.202 507.616C591.986 507.412 591.698 507.262 591.338 507.166C590.978 507.058 590.576 506.968 590.132 506.896C589.688 506.824 589.244 506.74 588.8 506.644C588.368 506.548 587.972 506.41 587.612 506.23C587.252 506.038 586.958 505.78 586.73 505.456C586.514 505.132 586.406 504.7 586.406 504.16C586.406 503.644 586.55 503.182 586.838 502.774C587.126 502.366 587.546 502.048 588.098 501.82C588.662 501.58 589.346 501.46 590.15 501.46C590.762 501.46 591.374 501.544 591.986 501.712C592.598 501.868 593.102 502.078 593.498 502.342L592.94 503.368C592.52 503.08 592.07 502.876 591.59 502.756C591.11 502.624 590.63 502.558 590.15 502.558C589.298 502.558 588.668 502.708 588.26 503.008C587.864 503.296 587.666 503.668 587.666 504.124C587.666 504.484 587.774 504.766 587.99 504.97C588.218 505.174 588.512 505.336 588.872 505.456C589.244 505.564 589.646 505.654 590.078 505.726C590.522 505.798 590.96 505.888 591.392 505.996C591.836 506.092 592.238 506.23 592.598 506.41C592.97 506.578 593.264 506.824 593.48 507.148C593.708 507.46 593.822 507.874 593.822 508.39C593.822 508.942 593.666 509.422 593.354 509.83C593.054 510.226 592.61 510.538 592.022 510.766C591.446 510.982 590.744 511.09 589.916 511.09ZM596.167 511V501.55H597.445V511H596.167ZM596.815 499.462C596.551 499.462 596.329 499.372 596.149 499.192C595.969 499.012 595.879 498.796 595.879 498.544C595.879 498.292 595.969 498.082 596.149 497.914C596.329 497.734 596.551 497.644 596.815 497.644C597.079 497.644 597.301 497.728 597.481 497.896C597.661 498.064 597.751 498.274 597.751 498.526C597.751 498.79 597.661 499.012 597.481 499.192C597.313 499.372 597.091 499.462 596.815 499.462ZM601.001 511V501.55H602.225V504.124L602.099 503.674C602.363 502.954 602.807 502.408 603.431 502.036C604.055 501.652 604.829 501.46 605.753 501.46V502.702C605.705 502.702 605.657 502.702 605.609 502.702C605.561 502.69 605.513 502.684 605.465 502.684C604.469 502.684 603.689 502.99 603.125 503.602C602.561 504.202 602.279 505.06 602.279 506.176V511H601.001ZM613.304 511V508.912L613.25 508.57V505.078C613.25 504.274 613.022 503.656 612.566 503.224C612.122 502.792 611.456 502.576 610.568 502.576C609.956 502.576 609.374 502.678 608.822 502.882C608.27 503.086 607.802 503.356 607.418 503.692L606.842 502.738C607.322 502.33 607.898 502.018 608.57 501.802C609.242 501.574 609.95 501.46 610.694 501.46C611.918 501.46 612.86 501.766 613.52 502.378C614.192 502.978 614.528 503.896 614.528 505.132V511H613.304ZM610.046 511.09C609.338 511.09 608.72 510.976 608.192 510.748C607.676 510.508 607.28 510.184 607.004 509.776C606.728 509.356 606.59 508.876 606.59 508.336C606.59 507.844 606.704 507.4 606.932 507.004C607.172 506.596 607.556 506.272 608.084 506.032C608.624 505.78 609.344 505.654 610.244 505.654H613.502V506.608H610.28C609.368 506.608 608.732 506.77 608.372 507.094C608.024 507.418 607.85 507.82 607.85 508.3C607.85 508.84 608.06 509.272 608.48 509.596C608.9 509.92 609.488 510.082 610.244 510.082C610.964 510.082 611.582 509.92 612.098 509.596C612.626 509.26 613.01 508.78 613.25 508.156L613.538 509.038C613.298 509.662 612.878 510.16 612.278 510.532C611.69 510.904 610.946 511.09 610.046 511.09ZM628.632 511V508.912L628.578 508.57V505.078C628.578 504.274 628.35 503.656 627.894 503.224C627.45 502.792 626.784 502.576 625.896 502.576C625.284 502.576 624.702 502.678 624.15 502.882C623.598 503.086 623.13 503.356 622.746 503.692L622.17 502.738C622.65 502.33 623.226 502.018 623.898 501.802C624.57 501.574 625.278 501.46 626.022 501.46C627.246 501.46 628.188 501.766 628.848 502.378C629.52 502.978 629.856 503.896 629.856 505.132V511H628.632ZM625.374 511.09C624.666 511.09 624.048 510.976 623.52 510.748C623.004 510.508 622.608 510.184 622.332 509.776C622.056 509.356 621.918 508.876 621.918 508.336C621.918 507.844 622.032 507.4 622.26 507.004C622.5 506.596 622.884 506.272 623.412 506.032C623.952 505.78 624.672 505.654 625.572 505.654H628.83V506.608H625.608C624.696 506.608 624.06 506.77 623.7 507.094C623.352 507.418 623.178 507.82 623.178 508.3C623.178 508.84 623.388 509.272 623.808 509.596C624.228 509.92 624.816 510.082 625.572 510.082C626.292 510.082 626.91 509.92 627.426 509.596C627.954 509.26 628.338 508.78 628.578 508.156L628.866 509.038C628.626 509.662 628.206 510.16 627.606 510.532C627.018 510.904 626.274 511.09 625.374 511.09ZM637.089 511.09C636.189 511.09 635.379 510.886 634.659 510.478C633.951 510.07 633.393 509.506 632.985 508.786C632.577 508.066 632.373 507.226 632.373 506.266C632.373 505.318 632.577 504.484 632.985 503.764C633.393 503.032 633.951 502.468 634.659 502.072C635.379 501.664 636.189 501.46 637.089 501.46C637.929 501.46 638.673 501.646 639.321 502.018C639.981 502.39 640.503 502.936 640.887 503.656C641.271 504.364 641.463 505.234 641.463 506.266C641.463 507.298 641.265 508.174 640.869 508.894C640.485 509.602 639.963 510.148 639.303 510.532C638.655 510.904 637.917 511.09 637.089 511.09ZM637.179 509.956C637.851 509.956 638.451 509.806 638.979 509.506C639.519 509.194 639.939 508.762 640.239 508.21C640.551 507.646 640.707 506.998 640.707 506.266C640.707 505.534 640.551 504.892 640.239 504.34C639.939 503.788 639.519 503.356 638.979 503.044C638.451 502.732 637.851 502.576 637.179 502.576C636.519 502.576 635.925 502.732 635.397 503.044C634.869 503.356 634.449 503.788 634.137 504.34C633.825 504.892 633.669 505.534 633.669 506.266C633.669 506.998 633.825 507.646 634.137 508.21C634.449 508.762 634.869 509.194 635.397 509.506C635.925 509.806 636.519 509.956 637.179 509.956ZM640.689 514.492V508.192L640.869 506.284L640.743 504.394V501.55H641.967V514.492H640.689ZM649.432 511.09C648.628 511.09 647.926 510.94 647.326 510.64C646.726 510.34 646.258 509.89 645.922 509.29C645.598 508.69 645.436 507.94 645.436 507.04V501.55H646.714V506.896C646.714 507.904 646.96 508.666 647.452 509.182C647.956 509.686 648.658 509.938 649.558 509.938C650.218 509.938 650.788 509.806 651.268 509.542C651.76 509.266 652.132 508.87 652.384 508.354C652.648 507.838 652.78 507.22 652.78 506.5V501.55H654.058V511H652.834V508.408L653.032 508.876C652.732 509.572 652.264 510.118 651.628 510.514C651.004 510.898 650.272 511.09 649.432 511.09ZM657.62 511V501.55H658.898V511H657.62ZM658.268 499.462C658.004 499.462 657.782 499.372 657.602 499.192C657.422 499.012 657.332 498.796 657.332 498.544C657.332 498.292 657.422 498.082 657.602 497.914C657.782 497.734 658.004 497.644 658.268 497.644C658.532 497.644 658.754 497.728 658.934 497.896C659.114 498.064 659.204 498.274 659.204 498.526C659.204 498.79 659.114 499.012 658.934 499.192C658.766 499.372 658.544 499.462 658.268 499.462ZM671.017 511.09C670.105 511.09 669.283 510.886 668.551 510.478C667.831 510.058 667.261 509.488 666.841 508.768C666.421 508.036 666.211 507.202 666.211 506.266C666.211 505.318 666.421 504.484 666.841 503.764C667.261 503.044 667.831 502.48 668.551 502.072C669.271 501.664 670.093 501.46 671.017 501.46C671.953 501.46 672.781 501.664 673.501 502.072C674.233 502.48 674.803 503.044 675.211 503.764C675.631 504.484 675.841 505.318 675.841 506.266C675.841 507.202 675.631 508.036 675.211 508.768C674.803 509.488 674.233 510.058 673.501 510.478C672.769 510.886 671.941 511.09 671.017 511.09ZM671.017 509.956C671.701 509.956 672.307 509.806 672.835 509.506C673.363 509.194 673.777 508.762 674.077 508.21C674.389 507.646 674.545 506.998 674.545 506.266C674.545 505.522 674.389 504.874 674.077 504.322C673.777 503.77 673.363 503.344 672.835 503.044C672.307 502.732 671.707 502.576 671.035 502.576C670.363 502.576 669.763 502.732 669.235 503.044C668.707 503.344 668.287 503.77 667.975 504.322C667.663 504.874 667.507 505.522 667.507 506.266C667.507 506.998 667.663 507.646 667.975 508.21C668.287 508.762 668.707 509.194 669.235 509.506C669.763 509.806 670.357 509.956 671.017 509.956ZM685.699 511.09C684.919 511.09 684.181 510.982 683.485 510.766C682.789 510.538 682.243 510.256 681.847 509.92L682.423 508.912C682.807 509.2 683.299 509.452 683.899 509.668C684.499 509.872 685.129 509.974 685.789 509.974C686.689 509.974 687.337 509.836 687.733 509.56C688.129 509.272 688.327 508.894 688.327 508.426C688.327 508.078 688.213 507.808 687.985 507.616C687.769 507.412 687.481 507.262 687.121 507.166C686.761 507.058 686.359 506.968 685.915 506.896C685.471 506.824 685.027 506.74 684.583 506.644C684.151 506.548 683.755 506.41 683.395 506.23C683.035 506.038 682.741 505.78 682.513 505.456C682.297 505.132 682.189 504.7 682.189 504.16C682.189 503.644 682.333 503.182 682.621 502.774C682.909 502.366 683.329 502.048 683.881 501.82C684.445 501.58 685.129 501.46 685.933 501.46C686.545 501.46 687.157 501.544 687.769 501.712C688.381 501.868 688.885 502.078 689.281 502.342L688.723 503.368C688.303 503.08 687.853 502.876 687.373 502.756C686.893 502.624 686.413 502.558 685.933 502.558C685.081 502.558 684.451 502.708 684.043 503.008C683.647 503.296 683.449 503.668 683.449 504.124C683.449 504.484 683.557 504.766 683.773 504.97C684.001 505.174 684.295 505.336 684.655 505.456C685.027 505.564 685.429 505.654 685.861 505.726C686.305 505.798 686.743 505.888 687.175 505.996C687.619 506.092 688.021 506.23 688.381 506.41C688.753 506.578 689.047 506.824 689.263 507.148C689.491 507.46 689.605 507.874 689.605 508.39C689.605 508.942 689.449 509.422 689.137 509.83C688.837 510.226 688.393 510.538 687.805 510.766C687.229 510.982 686.527 511.09 685.699 511.09ZM695.964 511.09C694.98 511.09 694.116 510.886 693.372 510.478C692.628 510.058 692.046 509.488 691.626 508.768C691.206 508.036 690.996 507.202 690.996 506.266C690.996 505.33 691.194 504.502 691.59 503.782C691.998 503.062 692.55 502.498 693.246 502.09C693.954 501.67 694.746 501.46 695.622 501.46C696.51 501.46 697.296 501.664 697.98 502.072C698.676 502.468 699.222 503.032 699.618 503.764C700.014 504.484 700.212 505.318 700.212 506.266C700.212 506.326 700.206 506.392 700.194 506.464C700.194 506.524 700.194 506.59 700.194 506.662H691.968V505.708H699.51L699.006 506.086C699.006 505.402 698.856 504.796 698.556 504.268C698.268 503.728 697.872 503.308 697.368 503.008C696.864 502.708 696.282 502.558 695.622 502.558C694.974 502.558 694.392 502.708 693.876 503.008C693.36 503.308 692.958 503.728 692.67 504.268C692.382 504.808 692.238 505.426 692.238 506.122V506.32C692.238 507.04 692.394 507.676 692.706 508.228C693.03 508.768 693.474 509.194 694.038 509.506C694.614 509.806 695.268 509.956 696 509.956C696.576 509.956 697.11 509.854 697.602 509.65C698.106 509.446 698.538 509.134 698.898 508.714L699.618 509.542C699.198 510.046 698.67 510.43 698.034 510.694C697.41 510.958 696.72 511.09 695.964 511.09ZM706.719 511.09C705.915 511.09 705.213 510.94 704.613 510.64C704.013 510.34 703.545 509.89 703.209 509.29C702.885 508.69 702.723 507.94 702.723 507.04V501.55H704.001V506.896C704.001 507.904 704.247 508.666 704.739 509.182C705.243 509.686 705.945 509.938 706.845 509.938C707.505 509.938 708.075 509.806 708.555 509.542C709.047 509.266 709.419 508.87 709.671 508.354C709.935 507.838 710.067 507.22 710.067 506.5V501.55H711.345V511H710.121V508.408L710.319 508.876C710.019 509.572 709.551 510.118 708.915 510.514C708.291 510.898 707.559 511.09 706.719 511.09ZM723.542 511.09C722.606 511.09 721.766 510.886 721.022 510.478C720.29 510.058 719.714 509.488 719.294 508.768C718.874 508.036 718.664 507.202 718.664 506.266C718.664 505.318 718.874 504.484 719.294 503.764C719.714 503.044 720.29 502.48 721.022 502.072C721.766 501.664 722.606 501.46 723.542 501.46C724.346 501.46 725.072 501.616 725.72 501.928C726.368 502.24 726.878 502.708 727.25 503.332L726.296 503.98C725.972 503.5 725.57 503.146 725.09 502.918C724.61 502.69 724.088 502.576 723.524 502.576C722.852 502.576 722.246 502.732 721.706 503.044C721.166 503.344 720.74 503.77 720.428 504.322C720.116 504.874 719.96 505.522 719.96 506.266C719.96 507.01 720.116 507.658 720.428 508.21C720.74 508.762 721.166 509.194 721.706 509.506C722.246 509.806 722.852 509.956 723.524 509.956C724.088 509.956 724.61 509.842 725.09 509.614C725.57 509.386 725.972 509.038 726.296 508.57L727.25 509.218C726.878 509.83 726.368 510.298 725.72 510.622C725.072 510.934 724.346 511.09 723.542 511.09ZM734.639 511.09C733.823 511.09 733.085 510.904 732.425 510.532C731.765 510.148 731.237 509.602 730.841 508.894C730.457 508.174 730.265 507.298 730.265 506.266C730.265 505.234 730.457 504.364 730.841 503.656C731.225 502.936 731.747 502.39 732.407 502.018C733.067 501.646 733.811 501.46 734.639 501.46C735.539 501.46 736.343 501.664 737.051 502.072C737.771 502.468 738.335 503.032 738.743 503.764C739.151 504.484 739.355 505.318 739.355 506.266C739.355 507.226 739.151 508.066 738.743 508.786C738.335 509.506 737.771 510.07 737.051 510.478C736.343 510.886 735.539 511.09 734.639 511.09ZM729.761 514.492V501.55H730.985V504.394L730.859 506.284L731.039 508.192V514.492H729.761ZM734.549 509.956C735.221 509.956 735.821 509.806 736.349 509.506C736.877 509.194 737.297 508.762 737.609 508.21C737.921 507.646 738.077 506.998 738.077 506.266C738.077 505.534 737.921 504.892 737.609 504.34C737.297 503.788 736.877 503.356 736.349 503.044C735.821 502.732 735.221 502.576 734.549 502.576C733.877 502.576 733.271 502.732 732.731 503.044C732.203 503.356 731.783 503.788 731.471 504.34C731.171 504.892 731.021 505.534 731.021 506.266C731.021 506.998 731.171 507.646 731.471 508.21C731.783 508.762 732.203 509.194 732.731 509.506C733.271 509.806 733.877 509.956 734.549 509.956ZM742.176 511V500.362C742.176 499.522 742.422 498.844 742.914 498.328C743.406 497.812 744.114 497.554 745.038 497.554C745.398 497.554 745.746 497.602 746.082 497.698C746.418 497.794 746.7 497.944 746.928 498.148L746.496 499.102C746.316 498.946 746.106 498.832 745.866 498.76C745.626 498.676 745.368 498.634 745.092 498.634C744.552 498.634 744.138 498.784 743.85 499.084C743.562 499.384 743.418 499.828 743.418 500.416V501.856L743.454 502.45V511H742.176ZM740.484 502.612V501.55H746.334V502.612H740.484Z" fill="#006283"/>
<path d="M738.248 637.148H742.966V638.912H738.248V637.148ZM738.416 641.18H743.75V643H736.162V633.2H743.568V635.02H738.416V641.18ZM747.894 643.112C747.25 643.112 746.629 643.037 746.032 642.888C745.444 642.729 744.977 642.533 744.632 642.3L745.36 640.732C745.705 640.947 746.111 641.124 746.578 641.264C747.054 641.395 747.52 641.46 747.978 641.46C748.482 641.46 748.836 641.399 749.042 641.278C749.256 641.157 749.364 640.989 749.364 640.774C749.364 640.597 749.28 640.466 749.112 640.382C748.953 640.289 748.738 640.219 748.468 640.172C748.197 640.125 747.898 640.079 747.572 640.032C747.254 639.985 746.932 639.925 746.606 639.85C746.279 639.766 745.98 639.645 745.71 639.486C745.439 639.327 745.22 639.113 745.052 638.842C744.893 638.571 744.814 638.221 744.814 637.792C744.814 637.316 744.949 636.896 745.22 636.532C745.5 636.168 745.901 635.883 746.424 635.678C746.946 635.463 747.572 635.356 748.3 635.356C748.813 635.356 749.336 635.412 749.868 635.524C750.4 635.636 750.843 635.799 751.198 636.014L750.47 637.568C750.106 637.353 749.737 637.209 749.364 637.134C749 637.05 748.645 637.008 748.3 637.008C747.814 637.008 747.46 637.073 747.236 637.204C747.012 637.335 746.9 637.503 746.9 637.708C746.9 637.895 746.979 638.035 747.138 638.128C747.306 638.221 747.525 638.296 747.796 638.352C748.066 638.408 748.36 638.459 748.678 638.506C749.004 638.543 749.331 638.604 749.658 638.688C749.984 638.772 750.278 638.893 750.54 639.052C750.81 639.201 751.03 639.411 751.198 639.682C751.366 639.943 751.45 640.289 751.45 640.718C751.45 641.185 751.31 641.6 751.03 641.964C750.75 642.319 750.344 642.599 749.812 642.804C749.289 643.009 748.65 643.112 747.894 643.112ZM756.003 643.112C755.294 643.112 754.654 642.953 754.085 642.636C753.516 642.319 753.063 641.871 752.727 641.292C752.4 640.713 752.237 640.027 752.237 639.234C752.237 638.45 752.4 637.769 752.727 637.19C753.063 636.611 753.516 636.163 754.085 635.846C754.654 635.519 755.294 635.356 756.003 635.356C756.666 635.356 757.23 635.496 757.697 635.776C758.173 636.056 758.537 636.481 758.789 637.05C759.041 637.619 759.167 638.347 759.167 639.234C759.167 640.111 759.036 640.839 758.775 641.418C758.514 641.987 758.145 642.412 757.669 642.692C757.193 642.972 756.638 643.112 756.003 643.112ZM756.381 641.32C756.736 641.32 757.058 641.236 757.347 641.068C757.636 640.9 757.865 640.662 758.033 640.354C758.21 640.037 758.299 639.663 758.299 639.234C758.299 638.795 758.21 638.422 758.033 638.114C757.865 637.806 757.636 637.568 757.347 637.4C757.058 637.232 756.736 637.148 756.381 637.148C756.017 637.148 755.69 637.232 755.401 637.4C755.112 637.568 754.878 637.806 754.701 638.114C754.533 638.422 754.449 638.795 754.449 639.234C754.449 639.663 754.533 640.037 754.701 640.354C754.878 640.662 755.112 640.9 755.401 641.068C755.69 641.236 756.017 641.32 756.381 641.32ZM758.257 645.716V641.474L758.397 639.248L758.355 637.008V635.468H760.441V645.716H758.257ZM765.641 643.112C765.016 643.112 764.456 642.991 763.961 642.748C763.476 642.505 763.098 642.137 762.827 641.642C762.556 641.138 762.421 640.499 762.421 639.724V635.468H764.605V639.402C764.605 640.027 764.736 640.489 764.997 640.788C765.268 641.077 765.646 641.222 766.131 641.222C766.467 641.222 766.766 641.152 767.027 641.012C767.288 640.863 767.494 640.639 767.643 640.34C767.792 640.032 767.867 639.649 767.867 639.192V635.468H770.051V643H767.979V640.928L768.357 641.53C768.105 642.053 767.732 642.449 767.237 642.72C766.752 642.981 766.22 643.112 765.641 643.112ZM775.812 643.112C774.954 643.112 774.198 642.944 773.544 642.608C772.9 642.272 772.401 641.815 772.046 641.236C771.692 640.648 771.514 639.981 771.514 639.234C771.514 638.478 771.687 637.811 772.032 637.232C772.387 636.644 772.868 636.187 773.474 635.86C774.081 635.524 774.767 635.356 775.532 635.356C776.27 635.356 776.932 635.515 777.52 635.832C778.118 636.14 778.589 636.588 778.934 637.176C779.28 637.755 779.452 638.45 779.452 639.262C779.452 639.346 779.448 639.444 779.438 639.556C779.429 639.659 779.42 639.757 779.41 639.85H773.292V638.576H778.262L777.422 638.954C777.422 638.562 777.343 638.221 777.184 637.932C777.026 637.643 776.806 637.419 776.526 637.26C776.246 637.092 775.92 637.008 775.546 637.008C775.173 637.008 774.842 637.092 774.552 637.26C774.272 637.419 774.053 637.647 773.894 637.946C773.736 638.235 773.656 638.581 773.656 638.982V639.318C773.656 639.729 773.745 640.093 773.922 640.41C774.109 640.718 774.366 640.956 774.692 641.124C775.028 641.283 775.42 641.362 775.868 641.362C776.27 641.362 776.62 641.301 776.918 641.18C777.226 641.059 777.506 640.877 777.758 640.634L778.92 641.894C778.575 642.286 778.141 642.589 777.618 642.804C777.096 643.009 776.494 643.112 775.812 643.112ZM784.546 643.112C783.734 643.112 783.011 642.949 782.376 642.622C781.742 642.286 781.242 641.824 780.878 641.236C780.524 640.648 780.346 639.981 780.346 639.234C780.346 638.478 780.524 637.811 780.878 637.232C781.242 636.644 781.742 636.187 782.376 635.86C783.011 635.524 783.734 635.356 784.546 635.356C785.34 635.356 786.03 635.524 786.618 635.86C787.206 636.187 787.64 636.658 787.92 637.274L786.226 638.184C786.03 637.829 785.783 637.568 785.484 637.4C785.195 637.232 784.878 637.148 784.532 637.148C784.159 637.148 783.823 637.232 783.524 637.4C783.226 637.568 782.988 637.806 782.81 638.114C782.642 638.422 782.558 638.795 782.558 639.234C782.558 639.673 782.642 640.046 782.81 640.354C782.988 640.662 783.226 640.9 783.524 641.068C783.823 641.236 784.159 641.32 784.532 641.32C784.878 641.32 785.195 641.241 785.484 641.082C785.783 640.914 786.03 640.648 786.226 640.284L787.92 641.208C787.64 641.815 787.206 642.286 786.618 642.622C786.03 642.949 785.34 643.112 784.546 643.112ZM789.137 643V635.468H791.321V643H789.137ZM790.229 634.418C789.828 634.418 789.501 634.301 789.249 634.068C788.997 633.835 788.871 633.545 788.871 633.2C788.871 632.855 788.997 632.565 789.249 632.332C789.501 632.099 789.828 631.982 790.229 631.982C790.63 631.982 790.957 632.094 791.209 632.318C791.461 632.533 791.587 632.813 791.587 633.158C791.587 633.522 791.461 633.825 791.209 634.068C790.966 634.301 790.64 634.418 790.229 634.418ZM806.959 635.356C807.556 635.356 808.083 635.477 808.541 635.72C809.007 635.953 809.371 636.317 809.633 636.812C809.903 637.297 810.039 637.923 810.039 638.688V643H807.855V639.024C807.855 638.417 807.729 637.969 807.477 637.68C807.225 637.391 806.87 637.246 806.413 637.246C806.095 637.246 805.811 637.321 805.559 637.47C805.307 637.61 805.111 637.825 804.971 638.114C804.831 638.403 804.761 638.772 804.761 639.22V643H802.577V639.024C802.577 638.417 802.451 637.969 802.199 637.68C801.956 637.391 801.606 637.246 801.149 637.246C800.831 637.246 800.547 637.321 800.295 637.47C800.043 637.61 799.847 637.825 799.707 638.114C799.567 638.403 799.497 638.772 799.497 639.22V643H797.313V635.468H799.399V637.526L799.007 636.924C799.268 636.411 799.637 636.023 800.113 635.762C800.598 635.491 801.149 635.356 801.765 635.356C802.455 635.356 803.057 635.533 803.571 635.888C804.093 636.233 804.439 636.765 804.607 637.484L803.837 637.274C804.089 636.686 804.49 636.219 805.041 635.874C805.601 635.529 806.24 635.356 806.959 635.356ZM811.996 643V635.468H814.18V643H811.996ZM813.088 634.418C812.687 634.418 812.36 634.301 812.108 634.068C811.856 633.835 811.73 633.545 811.73 633.2C811.73 632.855 811.856 632.565 812.108 632.332C812.36 632.099 812.687 631.982 813.088 631.982C813.49 631.982 813.816 632.094 814.068 632.318C814.32 632.533 814.446 632.813 814.446 633.158C814.446 633.522 814.32 633.825 814.068 634.068C813.826 634.301 813.499 634.418 813.088 634.418ZM820.785 635.356C821.383 635.356 821.915 635.477 822.381 635.72C822.857 635.953 823.231 636.317 823.501 636.812C823.772 637.297 823.907 637.923 823.907 638.688V643H821.723V639.024C821.723 638.417 821.588 637.969 821.317 637.68C821.056 637.391 820.683 637.246 820.197 637.246C819.852 637.246 819.539 637.321 819.259 637.47C818.989 637.61 818.774 637.829 818.615 638.128C818.466 638.427 818.391 638.809 818.391 639.276V643H816.207V635.468H818.293V637.554L817.901 636.924C818.172 636.42 818.559 636.033 819.063 635.762C819.567 635.491 820.141 635.356 820.785 635.356ZM830.465 635.356C831.062 635.356 831.594 635.477 832.061 635.72C832.537 635.953 832.91 636.317 833.181 636.812C833.452 637.297 833.587 637.923 833.587 638.688V643H831.403V639.024C831.403 638.417 831.268 637.969 830.997 637.68C830.736 637.391 830.362 637.246 829.877 637.246C829.532 637.246 829.219 637.321 828.939 637.47C828.668 637.61 828.454 637.829 828.295 638.128C828.146 638.427 828.071 638.809 828.071 639.276V643H825.887V632.612H828.071V637.554L827.581 636.924C827.852 636.42 828.239 636.033 828.743 635.762C829.247 635.491 829.821 635.356 830.465 635.356ZM840.187 643V641.53L840.047 641.208V638.576C840.047 638.109 839.902 637.745 839.613 637.484C839.333 637.223 838.899 637.092 838.311 637.092C837.909 637.092 837.513 637.157 837.121 637.288C836.738 637.409 836.411 637.577 836.141 637.792L835.357 636.266C835.767 635.977 836.262 635.753 836.841 635.594C837.419 635.435 838.007 635.356 838.605 635.356C839.753 635.356 840.644 635.627 841.279 636.168C841.913 636.709 842.231 637.554 842.231 638.702V643H840.187ZM837.891 643.112C837.303 643.112 836.799 643.014 836.379 642.818C835.959 642.613 835.637 642.337 835.413 641.992C835.189 641.647 835.077 641.259 835.077 640.83C835.077 640.382 835.184 639.99 835.399 639.654C835.623 639.318 835.973 639.057 836.449 638.87C836.925 638.674 837.545 638.576 838.311 638.576H840.313V639.85H838.549C838.035 639.85 837.681 639.934 837.485 640.102C837.298 640.27 837.205 640.48 837.205 640.732C837.205 641.012 837.312 641.236 837.527 641.404C837.751 641.563 838.054 641.642 838.437 641.642C838.801 641.642 839.127 641.558 839.417 641.39C839.706 641.213 839.916 640.956 840.047 640.62L840.383 641.628C840.224 642.113 839.935 642.482 839.515 642.734C839.095 642.986 838.553 643.112 837.891 643.112ZM850.706 643.112C850.062 643.112 849.441 643.037 848.844 642.888C848.256 642.729 847.789 642.533 847.444 642.3L848.172 640.732C848.517 640.947 848.923 641.124 849.39 641.264C849.866 641.395 850.333 641.46 850.79 641.46C851.294 641.46 851.649 641.399 851.854 641.278C852.069 641.157 852.176 640.989 852.176 640.774C852.176 640.597 852.092 640.466 851.924 640.382C851.765 640.289 851.551 640.219 851.28 640.172C851.009 640.125 850.711 640.079 850.384 640.032C850.067 639.985 849.745 639.925 849.418 639.85C849.091 639.766 848.793 639.645 848.522 639.486C848.251 639.327 848.032 639.113 847.864 638.842C847.705 638.571 847.626 638.221 847.626 637.792C847.626 637.316 847.761 636.896 848.032 636.532C848.312 636.168 848.713 635.883 849.236 635.678C849.759 635.463 850.384 635.356 851.112 635.356C851.625 635.356 852.148 635.412 852.68 635.524C853.212 635.636 853.655 635.799 854.01 636.014L853.282 637.568C852.918 637.353 852.549 637.209 852.176 637.134C851.812 637.05 851.457 637.008 851.112 637.008C850.627 637.008 850.272 637.073 850.048 637.204C849.824 637.335 849.712 637.503 849.712 637.708C849.712 637.895 849.791 638.035 849.95 638.128C850.118 638.221 850.337 638.296 850.608 638.352C850.879 638.408 851.173 638.459 851.49 638.506C851.817 638.543 852.143 638.604 852.47 638.688C852.797 638.772 853.091 638.893 853.352 639.052C853.623 639.201 853.842 639.411 854.01 639.682C854.178 639.943 854.262 640.289 854.262 640.718C854.262 641.185 854.122 641.6 853.842 641.964C853.562 642.319 853.156 642.599 852.624 642.804C852.101 643.009 851.462 643.112 850.706 643.112ZM859.348 643.112C858.489 643.112 857.733 642.944 857.08 642.608C856.436 642.272 855.936 641.815 855.582 641.236C855.227 640.648 855.05 639.981 855.05 639.234C855.05 638.478 855.222 637.811 855.568 637.232C855.922 636.644 856.403 636.187 857.01 635.86C857.616 635.524 858.302 635.356 859.068 635.356C859.805 635.356 860.468 635.515 861.056 635.832C861.653 636.14 862.124 636.588 862.47 637.176C862.815 637.755 862.988 638.45 862.988 639.262C862.988 639.346 862.983 639.444 862.974 639.556C862.964 639.659 862.955 639.757 862.946 639.85H856.828V638.576H861.798L860.958 638.954C860.958 638.562 860.878 638.221 860.72 637.932C860.561 637.643 860.342 637.419 860.062 637.26C859.782 637.092 859.455 637.008 859.082 637.008C858.708 637.008 858.377 637.092 858.088 637.26C857.808 637.419 857.588 637.647 857.43 637.946C857.271 638.235 857.192 638.581 857.192 638.982V639.318C857.192 639.729 857.28 640.093 857.458 640.41C857.644 640.718 857.901 640.956 858.228 641.124C858.564 641.283 858.956 641.362 859.404 641.362C859.805 641.362 860.155 641.301 860.454 641.18C860.762 641.059 861.042 640.877 861.294 640.634L862.456 641.894C862.11 642.286 861.676 642.589 861.154 642.804C860.631 643.009 860.029 643.112 859.348 643.112ZM869.02 635.356C869.617 635.356 870.149 635.477 870.616 635.72C871.092 635.953 871.465 636.317 871.736 636.812C872.006 637.297 872.142 637.923 872.142 638.688V643H869.958V639.024C869.958 638.417 869.822 637.969 869.552 637.68C869.29 637.391 868.917 637.246 868.432 637.246C868.086 637.246 867.774 637.321 867.494 637.47C867.223 637.61 867.008 637.829 866.85 638.128C866.7 638.427 866.626 638.809 866.626 639.276V643H864.442V635.468H866.528V637.554L866.136 636.924C866.406 636.42 866.794 636.033 867.298 635.762C867.802 635.491 868.376 635.356 869.02 635.356ZM878.699 635.356C879.297 635.356 879.829 635.477 880.295 635.72C880.771 635.953 881.145 636.317 881.415 636.812C881.686 637.297 881.821 637.923 881.821 638.688V643H879.637V639.024C879.637 638.417 879.502 637.969 879.231 637.68C878.97 637.391 878.597 637.246 878.111 637.246C877.766 637.246 877.453 637.321 877.173 637.47C876.903 637.61 876.688 637.829 876.529 638.128C876.38 638.427 876.305 638.809 876.305 639.276V643H874.121V632.612H876.305V637.554L875.815 636.924C876.086 636.42 876.473 636.033 876.977 635.762C877.481 635.491 878.055 635.356 878.699 635.356ZM888.421 643V641.53L888.281 641.208V638.576C888.281 638.109 888.136 637.745 887.847 637.484C887.567 637.223 887.133 637.092 886.545 637.092C886.144 637.092 885.747 637.157 885.355 637.288C884.972 637.409 884.646 637.577 884.375 637.792L883.591 636.266C884.002 635.977 884.496 635.753 885.075 635.594C885.654 635.435 886.242 635.356 886.839 635.356C887.987 635.356 888.878 635.627 889.513 636.168C890.148 636.709 890.465 637.554 890.465 638.702V643H888.421ZM886.125 643.112C885.537 643.112 885.033 643.014 884.613 642.818C884.193 642.613 883.871 642.337 883.647 641.992C883.423 641.647 883.311 641.259 883.311 640.83C883.311 640.382 883.418 639.99 883.633 639.654C883.857 639.318 884.207 639.057 884.683 638.87C885.159 638.674 885.78 638.576 886.545 638.576H888.547V639.85H886.783C886.27 639.85 885.915 639.934 885.719 640.102C885.532 640.27 885.439 640.48 885.439 640.732C885.439 641.012 885.546 641.236 885.761 641.404C885.985 641.563 886.288 641.642 886.671 641.642C887.035 641.642 887.362 641.558 887.651 641.39C887.94 641.213 888.15 640.956 888.281 640.62L888.617 641.628C888.458 642.113 888.169 642.482 887.749 642.734C887.329 642.986 886.788 643.112 886.125 643.112Z" fill="#006283"/>
<rect x="558" y="564" width="340" height="46" rx="15" fill="#006283"/>
<path d="M667.544 595L674.888 578.2H680.456L687.8 595H681.944L676.52 580.888H678.728L673.304 595H667.544ZM671.912 592.072L673.352 587.992H681.08L682.52 592.072H671.912ZM695.475 595.24C693.971 595.24 692.635 594.952 691.467 594.376C690.299 593.8 689.379 593 688.707 591.976C688.051 590.936 687.723 589.752 687.723 588.424C687.723 587.096 688.051 585.92 688.707 584.896C689.379 583.872 690.299 583.072 691.467 582.496C692.635 581.92 693.971 581.632 695.475 581.632C697.075 581.632 698.443 581.976 699.579 582.664C700.715 583.352 701.499 584.304 701.931 585.52L697.731 587.584C697.459 586.976 697.123 586.536 696.723 586.264C696.339 585.992 695.915 585.856 695.451 585.856C695.051 585.856 694.675 585.952 694.323 586.144C693.987 586.336 693.715 586.624 693.507 587.008C693.315 587.376 693.219 587.848 693.219 588.424C693.219 589 693.315 589.48 693.507 589.864C693.715 590.248 693.987 590.536 694.323 590.728C694.675 590.92 695.051 591.016 695.451 591.016C695.915 591.016 696.339 590.88 696.723 590.608C697.123 590.336 697.459 589.896 697.731 589.288L701.931 591.352C701.499 592.568 700.715 593.52 699.579 594.208C698.443 594.896 697.075 595.24 695.475 595.24ZM710.315 595.24C708.715 595.24 707.315 594.944 706.115 594.352C704.931 593.76 704.011 592.952 703.355 591.928C702.699 590.888 702.371 589.72 702.371 588.424C702.371 587.096 702.691 585.92 703.331 584.896C703.987 583.872 704.875 583.072 705.995 582.496C707.131 581.92 708.403 581.632 709.811 581.632C711.107 581.632 712.299 581.888 713.387 582.4C714.491 582.912 715.371 583.672 716.027 584.68C716.699 585.688 717.035 586.936 717.035 588.424C717.035 588.616 717.027 588.832 717.011 589.072C716.995 589.296 716.979 589.504 716.963 589.696H706.859V587.08H714.083L712.043 587.776C712.043 587.264 711.947 586.832 711.755 586.48C711.579 586.112 711.331 585.832 711.011 585.64C710.691 585.432 710.307 585.328 709.859 585.328C709.411 585.328 709.019 585.432 708.683 585.64C708.363 585.832 708.115 586.112 707.939 586.48C707.763 586.832 707.675 587.264 707.675 587.776V588.592C707.675 589.152 707.787 589.632 708.011 590.032C708.235 590.432 708.555 590.736 708.971 590.944C709.387 591.136 709.891 591.232 710.483 591.232C711.091 591.232 711.587 591.152 711.971 590.992C712.371 590.832 712.787 590.592 713.219 590.272L716.051 593.128C715.411 593.816 714.619 594.344 713.675 594.712C712.747 595.064 711.627 595.24 710.315 595.24ZM723.883 595.24C722.763 595.24 721.659 595.12 720.571 594.88C719.483 594.64 718.603 594.328 717.931 593.944L719.419 590.368C720.043 590.736 720.763 591.024 721.579 591.232C722.411 591.44 723.219 591.544 724.003 591.544C724.659 591.544 725.099 591.488 725.323 591.376C725.563 591.264 725.683 591.112 725.683 590.92C725.683 590.728 725.547 590.592 725.275 590.512C725.003 590.416 724.643 590.344 724.195 590.296C723.747 590.248 723.251 590.192 722.707 590.128C722.179 590.048 721.643 589.936 721.099 589.792C720.555 589.648 720.059 589.432 719.611 589.144C719.163 588.856 718.803 588.472 718.531 587.992C718.259 587.496 718.123 586.872 718.123 586.12C718.123 585.288 718.371 584.536 718.867 583.864C719.379 583.192 720.131 582.656 721.123 582.256C722.131 581.84 723.371 581.632 724.843 581.632C725.803 581.632 726.763 581.72 727.723 581.896C728.683 582.072 729.507 582.344 730.195 582.712L728.707 586.288C728.035 585.92 727.371 585.672 726.715 585.544C726.075 585.4 725.475 585.328 724.915 585.328C724.227 585.328 723.755 585.392 723.499 585.52C723.259 585.648 723.139 585.792 723.139 585.952C723.139 586.144 723.275 586.288 723.547 586.384C723.819 586.48 724.179 586.552 724.627 586.6C725.075 586.648 725.563 586.712 726.091 586.792C726.635 586.856 727.171 586.968 727.699 587.128C728.243 587.272 728.739 587.488 729.187 587.776C729.635 588.064 729.995 588.456 730.267 588.952C730.539 589.432 730.675 590.048 730.675 590.8C730.675 591.584 730.427 592.32 729.931 593.008C729.435 593.68 728.683 594.224 727.675 594.64C726.667 595.04 725.403 595.24 723.883 595.24ZM737.453 595.24C736.333 595.24 735.229 595.12 734.141 594.88C733.053 594.64 732.173 594.328 731.501 593.944L732.989 590.368C733.613 590.736 734.333 591.024 735.149 591.232C735.981 591.44 736.789 591.544 737.573 591.544C738.229 591.544 738.669 591.488 738.893 591.376C739.133 591.264 739.253 591.112 739.253 590.92C739.253 590.728 739.117 590.592 738.845 590.512C738.573 590.416 738.213 590.344 737.765 590.296C737.317 590.248 736.821 590.192 736.277 590.128C735.749 590.048 735.213 589.936 734.669 589.792C734.125 589.648 733.629 589.432 733.181 589.144C732.733 588.856 732.373 588.472 732.101 587.992C731.829 587.496 731.693 586.872 731.693 586.12C731.693 585.288 731.941 584.536 732.437 583.864C732.949 583.192 733.701 582.656 734.693 582.256C735.701 581.84 736.941 581.632 738.413 581.632C739.373 581.632 740.333 581.72 741.293 581.896C742.253 582.072 743.077 582.344 743.765 582.712L742.277 586.288C741.605 585.92 740.941 585.672 740.285 585.544C739.645 585.4 739.045 585.328 738.485 585.328C737.797 585.328 737.325 585.392 737.069 585.52C736.829 585.648 736.709 585.792 736.709 585.952C736.709 586.144 736.845 586.288 737.117 586.384C737.389 586.48 737.749 586.552 738.197 586.6C738.645 586.648 739.133 586.712 739.661 586.792C740.205 586.856 740.741 586.968 741.269 587.128C741.813 587.272 742.309 587.488 742.757 587.776C743.205 588.064 743.565 588.456 743.837 588.952C744.109 589.432 744.245 590.048 744.245 590.8C744.245 591.584 743.997 592.32 743.501 593.008C743.005 593.68 742.253 594.224 741.245 594.64C740.237 595.04 738.973 595.24 737.453 595.24ZM753.832 595V592.672L753.448 592.048V587.632C753.448 586.992 753.248 586.504 752.848 586.168C752.464 585.832 751.832 585.664 750.952 585.664C750.36 585.664 749.76 585.76 749.152 585.952C748.544 586.128 748.024 586.376 747.592 586.696L745.864 583.12C746.632 582.64 747.552 582.272 748.624 582.016C749.696 581.76 750.744 581.632 751.768 581.632C754.024 581.632 755.768 582.136 757 583.144C758.248 584.152 758.872 585.752 758.872 587.944V595H753.832ZM750.112 595.24C749.04 595.24 748.144 595.056 747.424 594.688C746.704 594.32 746.16 593.832 745.792 593.224C745.424 592.6 745.24 591.912 745.24 591.16C745.24 590.312 745.456 589.592 745.888 589C746.32 588.408 746.976 587.96 747.855 587.656C748.752 587.352 749.88 587.2 751.24 587.2H753.976V589.816H752.104C751.528 589.816 751.104 589.912 750.832 590.104C750.576 590.28 750.448 590.552 750.448 590.92C750.448 591.224 750.56 591.48 750.784 591.688C751.024 591.88 751.344 591.976 751.743 591.976C752.112 591.976 752.448 591.88 752.752 591.688C753.072 591.48 753.304 591.16 753.448 590.728L754.144 592.336C753.936 593.312 753.496 594.04 752.824 594.52C752.152 595 751.248 595.24 750.112 595.24ZM761.216 595V581.872H766.376V585.832L765.536 584.704C765.936 583.68 766.576 582.912 767.456 582.4C768.336 581.888 769.392 581.632 770.624 581.632V586.432C770.384 586.4 770.168 586.376 769.976 586.36C769.8 586.344 769.616 586.336 769.424 586.336C768.608 586.336 767.936 586.552 767.408 586.984C766.896 587.4 766.64 588.128 766.64 589.168V595H761.216Z" fill="white"/>
</g>
</g>
<defs>
<linearGradient id="paint0_linear_122_30" x1="526" y1="-535" x2="526" y2="1035" gradientUnits="userSpaceOnUse">
<stop stop-color="#006283"/>
<stop offset="1" stop-color="#06041B"/>
</linearGradient>
<linearGradient id="paint1_linear_122_30" x1="598" y1="-66" x2="598" y2="1204.12" gradientUnits="userSpaceOnUse">
<stop stop-color="#006283"/>
<stop offset="1" stop-color="#06041B"/>
</linearGradient>
<linearGradient id="paint2_linear_122_30" x1="679" y1="415" x2="679" y2="1385.24" gradientUnits="userSpaceOnUse">
<stop stop-color="#006283"/>
<stop offset="1" stop-color="#06041B"/>
</linearGradient>
<clipPath id="clip0_122_30">
<rect width="1399" height="899" fill="white"/>
</clipPath>
<clipPath id="clip1_122_30">
<rect width="1440" height="1024" fill="white" transform="translate(-1 -45)"/>
</clipPath>
<clipPath id="clip2_122_30">
<rect width="1920" height="1080" fill="white" transform="translate(-434 -45)"/>
</clipPath>
</defs>
</svg>
